<?xml version="1.0" encoding="utf-8"?>
<!-- Generator: Adobe Illustrator 25.4.1, SVG Export Plug-In . SVG Version: 6.00 Build 0)  -->
<svg version="1.1" id="Layer_1" xmlns="http://www.w3.org/2000/svg" xmlns:xlink="http://www.w3.org/1999/xlink" x="0px" y="0px"
	 viewBox="0 0 384 384" style="enable-background:new 0 0 384 384;" xml:space="preserve">
<style type="text/css">
	.st0{fill:#FFFFFF;}
</style>
<g>
	<path class="st0" d="M192.37,360.14c-92.59,0.01-167.85-75.51-167.69-168.26C24.84,99.14,99.87,24,192.34,23.99
		c92.59-0.02,167.85,75.49,167.7,168.25C359.89,284.97,284.83,360.13,192.37,360.14z M192.33,35.99
		c-85.9,0.02-155.61,69.88-155.67,156C36.6,278.07,106.26,348,192.2,348.14c85.98,0.14,155.97-70.01,155.87-156.2
		C347.96,105.81,278.22,35.97,192.33,35.99z"/>
	<path class="st0" d="M192.41,147.87c-6.68,6.7-13.01,13.05-19.33,19.39c-4.23,4.24-8.43,8.51-12.7,12.72
		c-3.67,3.61-6.73,3.66-10.31,0.11c-6.65-6.59-13.26-13.22-19.84-19.88c-3.63-3.68-3.68-6.71-0.08-10.33
		c19.02-19.11,38.06-38.19,57.12-57.25c3.55-3.55,6.55-3.61,10.04-0.13c19.16,19.14,38.29,38.32,57.39,57.52
		c3.45,3.47,3.41,6.56-0.05,10.06c-6.57,6.66-13.19,13.29-19.83,19.88c-3.75,3.72-6.77,3.71-10.58-0.1
		C213.75,169.37,203.3,158.82,192.41,147.87z M241.62,155.42c-16.51-16.55-33.21-33.29-49.39-49.51
		c-16.26,16.29-32.89,32.95-49.32,49.41c3.89,3.96,8.07,8.21,12.39,12.61c0.83-0.78,1.74-1.6,2.6-2.46
		c8.91-8.92,17.82-17.86,26.73-26.78c7.19-7.2,8.28-7.2,15.35-0.11c9.78,9.81,19.56,19.63,29.13,29.23
		C233.56,163.4,237.88,159.13,241.62,155.42z"/>
	<path class="st0" d="M192.49,236.16c10.55-10.61,20.76-20.88,30.98-31.13c4.86-4.87,7.37-4.87,12.18-0.07
		c6.27,6.27,12.54,12.52,18.78,18.82c3.78,3.81,3.8,6.79,0.01,10.6c-18.94,19.02-37.89,38.02-56.87,57
		c-3.71,3.71-6.67,3.74-10.31,0.09c-19.07-19.07-38.11-38.15-57.13-57.26c-3.62-3.64-3.57-6.64,0.08-10.32
		c6.59-6.65,13.21-13.27,19.86-19.86c3.58-3.54,6.66-3.52,10.32,0.13c9.64,9.6,19.23,19.26,28.84,28.89
		C190.18,234,191.17,234.91,192.49,236.16z M142.89,228.53c16.68,16.73,33.37,33.48,49.63,49.79c16.3-16.29,32.96-32.94,49.05-49.02
		c-4.05-4.1-8.3-8.39-12.69-12.83c-10.09,10.15-20.47,20.61-30.87,31.05c-4.36,4.38-6.95,4.35-11.37-0.08
		c-8.3-8.3-16.61-16.6-24.88-24.93c-2.16-2.18-4.22-4.45-6.12-6.47C150.89,220.7,146.62,224.88,142.89,228.53z"/>
	<path class="st0" d="M294.74,192.08c-1.1,1.81-1.79,3.6-3.02,4.87c-6.7,6.88-13.49,13.68-20.32,20.42
		c-3.36,3.32-6.38,3.31-9.76-0.02c-6.84-6.74-13.62-13.54-20.35-20.4c-3.31-3.38-3.3-6.39,0.02-9.78
		c6.73-6.85,13.51-13.65,20.35-20.4c3.36-3.32,6.38-3.31,9.76,0.01c6.84,6.74,13.63,13.54,20.32,20.42
		C292.96,188.48,293.64,190.27,294.74,192.08z M266.69,179.76c-4.24,4.25-8.44,8.46-12.06,12.09c4.03,4.03,8.29,8.3,12.06,12.07
		c3.85-3.81,8.07-8,12.13-12.02C274.84,187.92,270.64,183.71,266.69,179.76z"/>
	<path class="st0" d="M146.36,191.97c-0.94,1.69-1.5,3.44-2.64,4.61c-6.87,7.06-13.82,14.05-20.85,20.95
		c-3.2,3.14-6.24,3.09-9.48-0.11c-6.93-6.83-13.8-13.71-20.61-20.67c-3.13-3.2-3.07-6.26,0.11-9.51
		c6.73-6.86,13.51-13.65,20.34-20.4c3.4-3.37,6.41-3.43,9.76-0.14c6.93,6.82,13.8,13.72,20.59,20.68
		C144.73,188.57,145.35,190.27,146.36,191.97z M130.38,192.16c-4.08-4.02-8.38-8.26-12.38-12.2c-3.87,3.89-8.06,8.11-11.92,11.98
		c4.05,4.04,8.32,8.3,12.33,12.29C122.31,200.29,126.5,196.07,130.38,192.16z"/>
	<path class="st0" d="M220.88,192.09c-1.13,1.85-1.83,3.62-3.06,4.87c-6.8,6.98-13.69,13.86-20.61,20.71
		c-3.33,3.29-6.41,3.26-9.76-0.06c-6.92-6.85-13.8-13.75-20.63-20.69c-3.28-3.33-3.25-6.42,0.05-9.78
		c6.84-6.94,13.71-13.83,20.64-20.68c3.33-3.29,6.4-3.27,9.76,0.05c6.92,6.85,13.81,13.73,20.61,20.71
		C219.09,188.48,219.77,190.26,220.88,192.09z M205.05,192.09c-4.18-4.21-8.52-8.57-12.7-12.78c-4.17,4.21-8.5,8.58-12.6,12.71
		c4.14,4.18,8.48,8.55,12.6,12.72C196.53,200.59,200.89,196.24,205.05,192.09z"/>
	<path class="st0" d="M198.35,53.97c0.02,3.27-2.59,5.94-5.87,6.01c-3.28,0.07-5.99-2.49-6.11-5.77c-0.12-3.43,2.61-6.23,6.05-6.19
		C195.71,48.06,198.33,50.69,198.35,53.97z"/>
	<path class="st0" d="M54.59,186.06c3.27-0.02,5.93,2.58,6,5.88c0.07,3.44-2.71,6.22-6.12,6.13c-3.27-0.09-5.84-2.77-5.8-6.07
		C48.69,188.7,51.31,186.08,54.59,186.06z"/>
	<path class="st0" d="M336.06,191.92c0.08,3.29-2.47,6.02-5.73,6.14c-3.41,0.13-6.22-2.61-6.19-6.05c0.03-3.3,2.64-5.93,5.91-5.95
		C333.33,186.04,335.99,188.63,336.06,191.92z"/>
	<path class="st0" d="M239.31,56.28c3.22-0.07,6.03,2.55,6.18,5.75c0.15,3.25-2.4,6.05-5.65,6.22c-3.44,0.18-6.29-2.49-6.33-5.91
		C233.47,59.06,236.05,56.35,239.31,56.28z"/>
	<path class="st0" d="M327.81,144.78c0.05,3.26-2.57,5.96-5.83,6.03c-3.27,0.07-5.96-2.46-6.11-5.76c-0.15-3.42,2.58-6.28,5.99-6.25
		C325.06,138.83,327.76,141.54,327.81,144.78z"/>
	<path class="st0" d="M62.75,233.31c3.28-0.07,5.95,2.47,6.09,5.77c0.14,3.27-2.39,6.07-5.63,6.23c-3.34,0.17-6.26-2.61-6.31-5.99
		C56.86,236.07,59.47,233.38,62.75,233.31z"/>
	<path class="st0" d="M321.67,245.32c-3.26-0.08-5.85-2.79-5.8-6.07c0.06-3.46,2.87-6.12,6.3-5.94c3.26,0.17,5.8,2.97,5.64,6.22
		C327.65,242.78,324.88,245.4,321.67,245.32z"/>
	<path class="st0" d="M198.35,330.26c-0.07,3.27-2.76,5.87-6.03,5.85c-3.43-0.02-6.12-2.88-5.95-6.3c0.17-3.27,2.93-5.78,6.21-5.65
		C195.87,324.28,198.42,326.99,198.35,330.26z"/>
	<path class="st0" d="M151.21,321.91c-0.03,3.28-2.68,5.93-5.94,5.93c-3.24,0-5.97-2.66-6.04-5.88c-0.08-3.42,2.73-6.19,6.15-6.08
		C148.68,315.98,151.23,318.62,151.21,321.91z"/>
	<path class="st0" d="M239.27,327.84c-3.26-0.1-5.82-2.82-5.76-6.11c0.07-3.42,2.94-6.06,6.38-5.86c3.25,0.19,5.78,3.01,5.6,6.26
		C245.31,325.33,242.47,327.94,239.27,327.84z"/>
	<path class="st0" d="M68.84,144.9c-0.06,3.31-2.67,5.91-5.95,5.92c-3.27,0.01-5.95-2.61-5.99-5.87c-0.04-3.4,2.81-6.23,6.16-6.14
		C66.33,138.9,68.9,141.61,68.84,144.9z"/>
	<path class="st0" d="M151.21,62.2c0.03,3.28-2.52,5.94-5.81,6.05c-3.42,0.12-6.24-2.66-6.17-6.07c0.07-3.22,2.79-5.89,6.03-5.9
		C148.51,56.27,151.17,58.92,151.21,62.2z"/>
	<path class="st0" d="M168.4,62.09c-3.19,0-5.93-2.73-5.97-5.94c-0.04-3.43,2.71-6.08,6.22-5.99c3.33,0.08,5.83,2.71,5.77,6.03
		C174.34,59.42,171.63,62.09,168.4,62.09z"/>
	<path class="st0" d="M222.29,56.2c-0.06,3.21-2.84,5.93-6.02,5.89c-3.4-0.04-6.11-2.93-5.95-6.32c0.16-3.32,2.81-5.72,6.18-5.6
		C219.84,50.29,222.36,52.91,222.29,56.2z"/>
	<path class="st0" d="M109.86,86.31c-0.04,3.17-2.8,5.92-5.99,5.96c-3.45,0.05-6.1-2.7-5.97-6.2c0.12-3.26,2.84-5.86,6.07-5.8
		C107.15,80.34,109.9,83.15,109.86,86.31z"/>
	<path class="st0" d="M286.82,86.46c-0.07,3.34-2.67,5.87-5.99,5.81c-3.18-0.05-5.94-2.81-5.98-5.97c-0.03-3.31,2.97-6.19,6.28-6.02
		C284.37,80.44,286.88,83.17,286.82,86.46z"/>
	<path class="st0" d="M86.94,97.37c3.31,0.03,5.89,2.64,5.86,5.94c-0.02,3.21-2.72,5.98-5.89,6.05c-3.3,0.08-6.2-2.89-6.08-6.22
		C80.96,99.91,83.68,97.33,86.94,97.37z"/>
	<path class="st0" d="M333.92,168.06c0.02,3.36-2.48,5.96-5.78,6.02c-3.38,0.06-6.2-2.79-6.12-6.17c0.08-3.22,2.85-5.88,6.07-5.84
		C331.37,162.1,333.9,164.7,333.92,168.06z"/>
	<path class="st0" d="M62.69,168.14c-0.06,3.25-2.75,5.91-5.98,5.93c-3.46,0.02-6.06-2.72-5.92-6.25c0.14-3.34,2.79-5.85,6.06-5.76
		C60.07,162.15,62.76,164.95,62.69,168.14z"/>
	<path class="st0" d="M87.04,286.74c-3.29,0.08-6.02-2.4-6.19-5.66c-0.18-3.32,2.66-6.33,5.97-6.31c3.17,0.01,5.92,2.75,5.99,5.95
		C92.88,284.05,90.38,286.66,87.04,286.74z"/>
	<path class="st0" d="M56.86,222.07c-3.28,0.09-5.93-2.42-6.06-5.76c-0.14-3.38,2.23-6.06,5.54-6.24c3.39-0.19,6.29,2.51,6.35,5.92
		C62.76,219.17,60.07,221.98,56.86,222.07z"/>
	<path class="st0" d="M328.21,210.06c3.31,0.09,5.77,2.72,5.71,6.09c-0.06,3.36-2.62,5.92-5.91,5.92c-3.35,0-6.19-2.98-5.99-6.29
		C322.23,212.5,324.97,209.96,328.21,210.06z"/>
	<path class="st0" d="M168.42,322.04c3.24,0.02,5.94,2.69,5.99,5.92c0.06,3.48-2.64,6.11-6.16,6c-3.34-0.1-5.87-2.71-5.82-6
		C162.48,324.74,165.23,322.01,168.42,322.04z"/>
	<path class="st0" d="M222.29,328.14c-0.05,3.28-2.66,5.81-6.01,5.82c-3.5,0.01-6.13-2.71-5.97-6.19c0.15-3.22,2.95-5.83,6.17-5.74
		C219.69,322.12,222.34,324.91,222.29,328.14z"/>
	<path class="st0" d="M297.82,97.37c3.27-0.01,5.96,2.58,6.05,5.82c0.1,3.33-2.82,6.28-6.12,6.17c-3.17-0.1-5.85-2.89-5.84-6.1
		C291.91,99.96,294.51,97.38,297.82,97.37z"/>
	<path class="st0" d="M303.87,280.91c-0.08,3.26-2.73,5.83-6.02,5.83c-3.49,0-6.12-2.76-5.94-6.22c0.17-3.19,3.04-5.86,6.18-5.75
		C301.28,274.87,303.95,277.72,303.87,280.91z"/>
	<path class="st0" d="M103.89,303.84c-3.25,0.01-5.91-2.6-5.99-5.87c-0.08-3.34,2.39-6.01,5.68-6.11c3.34-0.11,6.29,2.72,6.28,6.04
		C109.85,301.07,107.08,303.83,103.89,303.84z"/>
	<path class="st0" d="M280.79,303.84c-3.18-0.03-5.95-2.83-5.93-5.99c0.02-3.31,2.99-6.12,6.32-5.99c3.3,0.13,5.74,2.79,5.64,6.15
		C286.72,301.28,284.04,303.88,280.79,303.84z"/>
	<path class="st0" d="M311.81,129.02c-3.19,0.06-5.98-2.57-6.15-5.78c-0.17-3.33,2.67-6.26,6.03-6.23c3.26,0.03,5.83,2.64,5.88,5.96
		C317.61,126.31,315.09,128.96,311.81,129.02z"/>
	<path class="st0" d="M305.66,261.29c-0.08-3.17,2.58-6.03,5.75-6.18c3.28-0.16,6,2.34,6.16,5.63c0.16,3.48-2.45,6.33-5.84,6.37
		C308.51,267.16,305.73,264.49,305.66,261.29z"/>
	<path class="st0" d="M123.59,317.57c-3.32,0.03-5.98-2.48-6.09-5.75c-0.11-3.38,2.73-6.29,6.06-6.19c3.21,0.09,5.9,2.82,5.92,6.02
		C129.49,314.94,126.9,317.55,123.59,317.57z"/>
	<path class="st0" d="M261.18,317.57c-3.31,0-5.92-2.58-5.93-5.87c-0.01-3.34,2.91-6.19,6.23-6.08c3.19,0.11,5.82,2.93,5.74,6.16
		C267.14,315.04,264.5,317.57,261.18,317.57z"/>
	<path class="st0" d="M129.47,72.45c0,3.2-2.69,5.94-5.89,6.03c-3.36,0.09-6.18-2.77-6.08-6.16c0.1-3.25,2.76-5.79,6.07-5.77
		C126.87,66.57,129.47,69.17,129.47,72.45z"/>
	<path class="st0" d="M79.05,122.81c0.1,3.17-2.54,6.04-5.72,6.21c-3.27,0.18-6.02-2.32-6.19-5.6c-0.18-3.47,2.42-6.33,5.81-6.4
		C76.19,116.95,78.95,119.58,79.05,122.81z"/>
	<path class="st0" d="M267.22,72.36c0.07,3.24-2.53,6.01-5.75,6.12c-3.33,0.12-6.24-2.72-6.22-6.07c0.02-3.28,2.64-5.86,5.94-5.86
		C264.5,66.55,267.15,69.1,267.22,72.36z"/>
	<path class="st0" d="M79.05,261.39c-0.14,3.22-2.94,5.82-6.16,5.72c-3.39-0.1-5.95-2.99-5.73-6.47c0.2-3.28,2.98-5.74,6.25-5.53
		C76.58,255.32,79.19,258.22,79.05,261.39z"/>
</g>
</svg>
